<?xml version="1.0" standalone="no"?>
<!DOCTYPE svg PUBLIC "-//W3C//DTD SVG 20010904//EN"
 "http://www.w3.org/TR/2001/REC-SVG-20010904/DTD/svg10.dtd">
<svg version="1.0" xmlns="http://www.w3.org/2000/svg"
 width="300.000000pt" height="300.000000pt" viewBox="0 0 300.000000 300.000000"
 preserveAspectRatio="xMidYMid meet">

<g transform="translate(0.000000,300.000000) scale(0.100000,-0.100000)"
fill="#000000" stroke="none">
<path d="M1420 2168 c-62 -24 -162 -116 -173 -159 -4 -14 -25 -45 -48 -69 -62
-65 -113 -149 -140 -232 -33 -101 -33 -265 0 -349 55 -142 209 -231 366 -213
84 9 130 30 170 77 l35 41 0 -50 c0 -31 -7 -61 -20 -81 -26 -43 -10 -42 28 2
53 59 55 147 5 205 l-26 31 -53 -56 c-94 -98 -209 -129 -329 -88 -68 23 -137
93 -160 164 -40 118 -11 310 65 429 68 107 193 194 335 235 92 27 237 17 340
-24 44 -17 86 -35 94 -40 20 -13 7 -69 -30 -125 -62 -92 -177 -147 -354 -166
-211 -22 -287 -58 -332 -157 -21 -44 -24 -65 -20 -104 10 -80 26 -95 27 -24 1
103 51 179 139 210 59 20 62 19 45 -12 -14 -29 -19 -63 -8 -63 21 0 76 37 102
69 29 36 33 38 121 49 121 16 189 43 252 99 55 51 86 94 112 160 l16 42 -29
25 c-75 63 -228 116 -335 116 -60 0 -63 1 -94 40 -17 22 -35 40 -39 39 -4 0
-32 -10 -62 -21z"/>
<path d="M1575 1980 c-8 -16 -15 -38 -15 -50 0 -38 28 -89 59 -104 50 -27 62
-19 26 17 -36 36 -59 102 -49 142 8 34 -2 32 -21 -5z"/>
<path d="M1714 1985 c-8 -21 2 -45 19 -45 8 0 20 7 27 15 10 12 10 18 0 30 -7
8 -19 15 -27 15 -7 0 -16 -7 -19 -15z"/>
<path d="M779 1033 l-82 -106 23 -17 c23 -18 24 -17 53 19 16 20 31 38 33 40
2 3 18 -5 34 -17 35 -26 43 -27 60 -7 11 13 8 20 -20 44 -32 26 -33 29 -18 49
l15 22 35 -27 c19 -16 42 -36 52 -45 21 -21 28 -22 44 -6 18 18 15 48 -5 55
-10 3 -46 28 -80 54 l-61 48 -83 -106z"/>
<path d="M2245 1126 c-18 -13 -18 -14 1 -38 51 -64 160 -188 165 -188 3 0 13
8 22 18 14 16 9 24 -69 117 -47 55 -88 101 -92 103 -4 1 -16 -4 -27 -12z"/>
<path d="M2199 951 c-38 -38 -40 -91 -4 -126 28 -28 63 -32 105 -10 60 31 77
91 39 139 -17 21 -29 26 -65 26 -37 0 -51 -6 -75 -29z m99 -52 c4 -31 -20 -53
-47 -44 -47 15 -31 79 18 73 20 -2 27 -9 29 -29z"/>
<path d="M1124 916 c-9 -28 -18 -53 -20 -54 -1 -2 -15 5 -31 17 -44 31 -87 32
-103 0 -9 -16 -7 -27 9 -55 25 -42 25 -44 7 -44 -8 0 -21 9 -28 19 -11 16 -16
17 -30 7 -16 -11 -16 -15 -2 -34 8 -12 33 -27 56 -34 38 -11 42 -10 59 11 24
30 24 42 -2 75 -12 15 -19 29 -17 32 8 7 38 -7 38 -18 0 -6 7 -5 15 2 27 22
27 5 0 -65 -14 -38 -24 -69 -23 -71 2 -1 15 -5 29 -9 24 -6 27 -3 39 40 15 52
38 71 65 51 17 -12 17 -15 0 -66 -18 -54 -13 -69 22 -70 11 0 53 97 53 124 0
21 -45 56 -73 56 -31 0 -32 3 -12 61 18 49 15 64 -14 72 -17 4 -23 -3 -37 -47z"/>
<path d="M896 912 c-17 -26 -36 -57 -43 -68 -12 -19 -11 -23 10 -37 22 -14 24
-13 66 55 41 66 42 70 25 83 -11 8 -21 14 -24 15 -3 0 -18 -21 -34 -48z"/>
<path d="M2097 890 c-8 -11 -16 -17 -19 -15 -3 3 -22 -2 -43 -12 -36 -17 -37
-17 -51 1 -7 10 -15 23 -16 27 -2 5 -12 6 -24 3 -18 -5 -21 -13 -20 -57 1 -38
5 -53 17 -55 8 -1 21 -21 29 -44 19 -51 39 -66 77 -52 36 12 36 35 1 52 -33
16 -46 55 -25 76 12 13 18 7 42 -45 16 -32 31 -59 35 -59 3 0 14 6 24 13 16
12 16 15 -3 57 -21 46 -15 80 14 80 9 0 15 10 15 25 0 31 -32 34 -53 5z"/>
<path d="M1427 866 c-49 -18 -67 -34 -84 -73 -19 -47 -16 -85 10 -124 28 -42
79 -69 132 -69 55 0 70 11 56 39 -9 16 -21 21 -55 21 -51 0 -86 31 -86 76 0
61 55 97 115 74 25 -9 31 -8 42 6 18 25 16 33 -9 43 -48 18 -84 20 -121 7z"/>
<path d="M1828 795 c-7 -7 -33 -13 -60 -14 -22 -1 -23 -23 -2 -105 15 -59 17
-63 41 -58 23 4 25 8 19 42 -3 21 -8 44 -11 52 -3 7 1 22 9 33 22 29 47 9 62
-49 15 -57 14 -57 43 -49 20 5 22 10 16 41 -3 19 -12 51 -18 71 -11 33 -16 36
-52 39 -23 2 -44 0 -47 -3z"/>
<path d="M1584 746 c-60 -51 -20 -146 62 -146 64 0 103 33 104 88 0 75 -104
112 -166 58z m104 -64 c-2 -22 -8 -27 -32 -27 -17 0 -33 7 -40 18 -9 15 -7 22
12 37 32 26 65 11 60 -28z"/>
</g>
</svg>
