<?xml version="1.0" standalone="no"?>
<!DOCTYPE svg PUBLIC "-//W3C//DTD SVG 20010904//EN"
 "http://www.w3.org/TR/2001/REC-SVG-20010904/DTD/svg10.dtd">
<svg version="1.0" xmlns="http://www.w3.org/2000/svg"
 width="200.000000pt" height="200.000000pt" viewBox="0 0 200.000000 200.000000"
 preserveAspectRatio="xMidYMid meet">

<g transform="translate(0.000000,200.000000) scale(0.100000,-0.100000)"
fill="#000000" stroke="none">
<path d="M894 1543 c-8 -3 -9 -18 -2 -51 4 -26 6 -52 3 -59 -5 -14 11 -18 18
-5 10 15 -8 119 -19 115z"/>
<path d="M977 1543 c-16 -15 -5 -45 23 -61 31 -18 39 -37 18 -45 -8 -4 -9 -6
-2 -6 6 -1 18 6 25 15 12 14 8 21 -25 49 -22 19 -36 37 -32 44 8 12 3 15 -7 4z"/>
<path d="M1030 1535 c7 -9 15 -13 17 -11 7 7 -7 26 -19 26 -6 0 -6 -6 2 -15z"/>
<path d="M1110 1521 c0 -10 -7 -37 -15 -60 -12 -36 -12 -41 0 -41 8 0 15 8 15
18 0 10 3 22 7 26 4 3 8 13 9 20 1 7 5 23 9 35 5 15 2 21 -9 21 -9 0 -16 -8
-16 -19z"/>
<path d="M800 1526 c0 -2 7 -7 16 -10 8 -3 12 -2 9 4 -6 10 -25 14 -25 6z"/>
<path d="M755 1510 c-11 -5 -15 -9 -9 -9 10 -1 41 -87 37 -102 -1 -4 7 -5 18
-2 12 3 16 9 10 12 -6 4 -12 16 -14 26 -2 11 -9 31 -14 45 -8 18 -7 27 1 32
15 10 -4 9 -29 -2z"/>
<path d="M1184 1511 c6 -9 -9 -63 -25 -93 -7 -13 -5 -18 5 -18 9 0 21 21 30
54 20 66 20 66 0 66 -8 0 -13 -4 -10 -9z"/>
<path d="M815 1470 c-3 -5 -1 -10 4 -10 6 0 11 5 11 10 0 6 -2 10 -4 10 -3 0
-8 -4 -11 -10z"/>
<path d="M971 1444 c0 -11 3 -14 6 -6 3 7 2 16 -1 19 -3 4 -6 -2 -5 -13z"/>
<path d="M530 574 c-17 -20 -17 -68 0 -88 17 -21 64 -20 81 2 13 15 12 16 -3
3 -46 -35 -96 25 -63 75 17 26 5 33 -15 8z"/>
<path d="M590 586 c0 -2 7 -9 15 -16 13 -11 14 -10 9 4 -5 14 -24 23 -24 12z"/>
<path d="M670 574 c-20 -23 -16 -75 5 -90 27 -20 41 -17 22 4 -25 28 -31 67
-12 86 9 9 12 16 7 16 -5 0 -15 -7 -22 -16z"/>
<path d="M733 572 c20 -22 22 -73 5 -90 -7 -7 -9 -12 -6 -12 4 0 14 7 22 16
20 20 20 68 0 88 -22 22 -41 20 -21 -2z"/>
<path d="M815 530 c0 -34 4 -60 10 -60 6 0 9 18 7 43 l-3 42 38 -42 c21 -24
42 -43 45 -43 13 0 -5 32 -38 69 -19 20 -34 39 -34 44 0 4 -6 7 -12 7 -9 0
-13 -19 -13 -60z"/>
<path d="M960 573 c0 -10 4 -14 8 -8 4 6 11 13 16 18 5 4 2 7 -7 7 -10 0 -17
-8 -17 -17z"/>
<path d="M998 530 c-2 -48 0 -60 12 -60 12 0 15 13 15 60 0 81 -22 81 -27 0z"/>
<path d="M1045 580 c3 -5 8 -10 11 -10 2 0 4 5 4 10 0 6 -5 10 -11 10 -5 0 -7
-4 -4 -10z"/>
<path d="M1108 530 c-2 -48 0 -60 12 -60 12 0 15 13 15 60 0 81 -22 81 -27 0z"/>
<path d="M1163 579 c18 -11 23 -44 7 -54 -13 -8 10 -55 27 -55 11 0 10 5 -2
24 -11 16 -13 26 -6 31 18 10 12 44 -8 55 -25 13 -42 13 -18 -1z"/>
<path d="M1256 574 c-22 -21 -20 -67 2 -87 26 -24 46 -21 22 3 -22 22 -27 69
-8 88 7 7 9 12 6 12 -4 0 -14 -7 -22 -16z"/>
<path d="M1324 568 c21 -30 20 -75 -1 -87 -10 -6 -13 -11 -6 -11 17 0 43 40
43 66 0 11 -8 28 -18 37 -26 24 -36 21 -18 -5z"/>
<path d="M1405 530 l0 -60 36 0 c26 0 39 5 44 18 5 14 4 15 -6 5 -7 -7 -22
-13 -32 -13 -17 0 -18 7 -15 55 2 44 0 55 -12 55 -12 0 -15 -13 -15 -60z"/>
</g>
</svg>
